# xmcd
# 
# Track frame offsets:
#     150
#     17195
#     29397
#     41382
# 
# Disc length: 879
# 
# Revision: 0
# Processed by: cddbd v1.5.2PL0 Copyright (c) Steve Scherf et al.
# Submitted via: BonkEnc v1.0.8
# 
DISCID=27036d04
DTITLE=John Mellencamp - Freedom's Road [Bonus Disc]
DYEAR=0
DGENRE=Rock
TTITLE0=Ghost Towns Along the Highway (Acoustic Version)
TTITLE1=Someday (Acoustic Version)
TTITLE2=Rural Route (Acoustic Version)
TTITLE3=The Americans (Acoustic Version)
EXTD=
EXTT0=
EXTT1=
EXTT2=
EXTT3=
PLAYORDER=
